<svg xmlns="http://www.w3.org/2000/svg" xmlns:xlink="http://www.w3.org/1999/xlink" width="52" height="36" viewBox="0 0 52 36">
  <defs>
    <style>
      .cls-1 {
        fill-rule: evenodd;
        filter: url(#filter);
      }
    </style>
    <filter id="filter" x="0.75" y="0.344" width="50.875" height="35.625" filterUnits="userSpaceOnUse">
      <feFlood result="flood" flood-color="#555"/>
      <feComposite result="composite" operator="in" in2="SourceGraphic"/>
      <feBlend result="blend" in2="SourceGraphic"/>
    </filter>
  </defs>
  <path id="icon" class="cls-1" d="M9,13.245a6.8,6.8,0,0,1,5.742-3.608H40.949V7.983A2.479,2.479,0,0,0,38.491,5.5H27.675V4.058A3.707,3.707,0,0,0,23.991.335H17.7a3.64,3.64,0,0,0-2.607,1.1,3.694,3.694,0,0,0-1.081,2.627V5.5H3.2A2.475,2.475,0,0,0,.738,7.983V30.148Zm7.47-9.188a1.249,1.249,0,0,1,.363-0.875A1.2,1.2,0,0,1,17.7,2.815h6.29a1.235,1.235,0,0,1,1.229,1.242V5.5H16.47V4.058ZM41.921,33.763a4.328,4.328,0,0,1-3.543,2.221H3.08a1.418,1.418,0,0,1-1.369-2.221L11.2,14.341a4.319,4.319,0,0,1,3.539-2.226h35.3a1.421,1.421,0,0,1,1.372,2.226Z"/>
</svg>
