<svg xmlns="http://www.w3.org/2000/svg" xmlns:xlink="http://www.w3.org/1999/xlink" width="44" height="44" viewBox="0 0 44 44">
  <defs>
    <style>
      .cls-1 {
        fill-rule: evenodd;
        filter: url(#filter);
      }
    </style>
    <filter id="filter" x="0.375" y="0.063" width="43.563" height="43.563" filterUnits="userSpaceOnUse">
      <feFlood result="flood" flood-color="#555"/>
      <feComposite result="composite" operator="in" in2="SourceGraphic"/>
      <feBlend result="blend" in2="SourceGraphic"/>
    </filter>
  </defs>
  <path id="icon" class="cls-1" d="M43.927,21.85a4.318,4.318,0,0,0-2.606-3.857,5.98,5.98,0,0,1-3.24-2.742,6.023,6.023,0,0,1,.355-4.234,4.331,4.331,0,0,0-.887-4.574,4.326,4.326,0,0,0-4.573-.885,6.008,6.008,0,0,1-4.231.357,6.009,6.009,0,0,1-2.741-3.242,4.164,4.164,0,0,0-7.723,0,6.011,6.011,0,0,1-2.741,3.242,6.007,6.007,0,0,1-4.231-.357,4.326,4.326,0,0,0-4.573.885,4.33,4.33,0,0,0-.887,4.574A6.007,6.007,0,0,1,6.2,15.25a6,6,0,0,1-3.238,2.743,4.16,4.16,0,0,0,0,7.718,6.022,6.022,0,0,1,3.24,2.743,6,6,0,0,1-.355,4.229,4.326,4.326,0,0,0,.887,4.572,4.324,4.324,0,0,0,4.573.887,6,6,0,0,1,4.231-.354,6.019,6.019,0,0,1,2.741,3.243,4.167,4.167,0,0,0,7.723,0,6.041,6.041,0,0,1,2.739-3.246,6.009,6.009,0,0,1,4.233.356,4.162,4.162,0,0,0,5.46-5.459,6.02,6.02,0,0,1-.358-4.23,6.014,6.014,0,0,1,3.243-2.742A4.327,4.327,0,0,0,43.927,21.85ZM22.144,29.842a7.988,7.988,0,1,1,7.984-7.983A7.984,7.984,0,0,1,22.144,29.842Z"/>
</svg>
