<svg xmlns="http://www.w3.org/2000/svg" xmlns:xlink="http://www.w3.org/1999/xlink" width="49" height="49" viewBox="0 0 49 49">
  <defs>
    <style>
      .cls-1 {
        fill-rule: evenodd;
        filter: url(#filter);
      }
    </style>
    <filter id="filter" x="0.531" y="0.875" width="47.594" height="47.594" filterUnits="userSpaceOnUse">
      <feFlood result="flood" flood-color="#555"/>
      <feComposite result="composite" operator="in" in2="SourceGraphic"/>
      <feBlend result="blend" in2="SourceGraphic"/>
    </filter>
  </defs>
  <path id="icon" class="cls-1" d="M47.668,17.47a1.587,1.587,0,0,0-2.248,0L31.573,31.314,12.106,39.887l-3-3,8.576-19.466L31.527,3.576a1.59,1.59,0,0,0-2.248-2.248L15.011,15.591,0.534,48.464,33.4,33.985,47.668,19.717A1.588,1.588,0,0,0,47.668,17.47Zm-20.173,11a1.593,1.593,0,0,0,2.25,0L43.077,15.134a1.591,1.591,0,1,0-2.25-2.249L27.5,26.216A1.593,1.593,0,0,0,27.5,28.466Zm-3.48-3.481a1.595,1.595,0,0,0,2.25,0L39.6,11.653a1.591,1.591,0,0,0-2.25-2.25L24.015,22.735A1.592,1.592,0,0,0,24.015,24.986ZM20.534,21.5a1.591,1.591,0,0,0,2.25,0L36.117,8.172a1.591,1.591,0,1,0-2.25-2.25L20.534,19.253A1.591,1.591,0,0,0,20.534,21.5Z"/>
</svg>
