<svg xmlns="http://www.w3.org/2000/svg" xmlns:xlink="http://www.w3.org/1999/xlink" width="18" height="24" viewBox="0 0 18 24">
  <defs>
    <style>
      .cls-1 {
        fill-rule: evenodd;
        filter: url(#filter);
      }
    </style>
    <filter id="filter" x="0" y="0" width="18" height="24" filterUnits="userSpaceOnUse">
      <feFlood result="flood" flood-color="#fff"/>
      <feComposite result="composite" operator="in" in2="SourceGraphic"/>
      <feBlend result="blend" in2="SourceGraphic"/>
    </filter>
  </defs>
  <path id="icon-cart" class="cls-1" d="M15,3H13.5c0-1.657-2.013-3-4.5-3S4.5,1.342,4.5,3H3A3,3,0,0,0,0,6V21a3,3,0,0,0,3,3H15a3,3,0,0,0,3-3V6A3,3,0,0,0,15,3ZM9,1.5c1.656,0,3,.464,3,1.5H6C6,1.962,7.343,1.5,9,1.5ZM16.5,21a1.5,1.5,0,0,1-1.5,1.5H3A1.5,1.5,0,0,1,1.5,21V19.5H16.5V21Zm0-3H1.5V6A1.5,1.5,0,0,1,3,4.5H4.5V9H6V4.5h6V9h1.5V4.5H15A1.5,1.5,0,0,1,16.5,6V18Z"/>
</svg>
