<svg xmlns="http://www.w3.org/2000/svg" width="26" height="26" viewBox="0 0 26 26">
  <defs>
    <style>
      .cls-1 {
        fill-rule: evenodd;
      }
    </style>
  </defs>
  <path id="link" class="cls-1" d="M23.5,2.494a6.2,6.2,0,0,0-8.743,0L10.035,7.217a7.068,7.068,0,0,1,4.909.376L17.4,5.137A2.447,2.447,0,0,1,20.857,8.6l-3.085,3.087-2.028,2.029a2.446,2.446,0,0,1-3.46,0L9.643,16.359a6.037,6.037,0,0,0,2.079,1.365,6.24,6.24,0,0,0,6.153-.9,4.32,4.32,0,0,0,.511-0.46l3.187-3.189L23.5,11.242A6.178,6.178,0,0,0,23.5,2.494ZM10.938,18.524L8.586,20.878a2.448,2.448,0,0,1-3.46-3.463L10.239,12.3a2.446,2.446,0,0,1,3.46,0l2.642-2.644a6.012,6.012,0,0,0-2.079-1.363A6.191,6.191,0,0,0,7.836,9.435a3.211,3.211,0,0,0-.239.222L2.484,14.774a6.184,6.184,0,0,0,8.743,8.748l4.619-4.672A6.147,6.147,0,0,1,10.938,18.524Z"/>
</svg>
