<svg xmlns="http://www.w3.org/2000/svg" xmlns:xlink="http://www.w3.org/1999/xlink" width="26" height="25" viewBox="0 0 26 25">
  <defs>
    <style>
      .cls-1 {
        fill-rule: evenodd;
        filter: url(#filter);
      }
    </style>
    <filter id="filter" x="0.781" y="0.188" width="25.156" height="24.469" filterUnits="userSpaceOnUse">
      <feFlood result="flood" flood-color="#fff"/>
      <feComposite result="composite" operator="in" in2="SourceGraphic"/>
      <feBlend result="blend" in2="SourceGraphic"/>
    </filter>
  </defs>
  <path id="lupa" class="cls-1" d="M11.3,4.082a1.3,1.3,0,1,0,0,2.592,4.147,4.147,0,0,1,3.748,2.309,1.315,1.315,0,0,0,1.183.728,1.347,1.347,0,0,0,.576-0.13,1.288,1.288,0,0,0,.606-1.734A6.765,6.765,0,0,0,11.3,4.082Zm14.152,17.8-4.383-4.318A10.834,10.834,0,0,0,23.141,11.2,11.113,11.113,0,0,0,11.959.186,11.113,11.113,0,0,0,.777,11.2a11.2,11.2,0,0,0,18.018,8.7l4.335,4.271a1.664,1.664,0,0,0,2.326,0A1.6,1.6,0,0,0,25.456,21.881ZM3.409,11.2a8.552,8.552,0,0,1,17.1,0,8.288,8.288,0,0,1-1.786,5.133A8.567,8.567,0,0,1,3.409,11.2Z"/>
</svg>
