<svg display="none" xmlns="http://www.w3.org/2000/svg">

  <symbol id="piple">
    <path id="icon" class="cls-1" d="M19.937,30.25c5.688,0,10.313-5.629,10.313-12.547S25.625,5.156,19.937,5.156a9.445,9.445,0,0,0-7.395,3.788A14.012,14.012,0,0,0,9.625,17.7C9.625,24.622,14.25,30.25,19.937,30.25Zm0-22.344c4.169,0,7.563,4.395,7.563,9.8s-3.393,9.8-7.562,9.8-7.562-4.394-7.565-9.8S15.765,7.906,19.937,7.906ZM28.6,28.875a1.375,1.375,0,1,0,0,2.75,8.537,8.537,0,0,1,8.527,8.528,1.1,1.1,0,0,1-1.1,1.1H3.848a1.1,1.1,0,0,1-1.1-1.1,8.536,8.536,0,0,1,8.524-8.528,1.375,1.375,0,1,0,0-2.75A11.289,11.289,0,0,0,0,40.153,3.852,3.852,0,0,0,3.848,44H36.024a3.854,3.854,0,0,0,3.851-3.847A11.291,11.291,0,0,0,28.6,28.875ZM20.943,3.629a6.049,6.049,0,0,1,3.12-.878c4.169,0,7.562,4.395,7.562,9.8a12.449,12.449,0,0,1-.32,2.828,1.373,1.373,0,0,0,1.023,1.652,1.305,1.305,0,0,0,.316.037A1.376,1.376,0,0,0,33.982,16a15.292,15.292,0,0,0,.394-3.457C34.375,5.629,29.75,0,24.063,0a8.883,8.883,0,0,0-4.518,1.261A1.375,1.375,0,0,0,20.943,3.629ZM33,23.375a1.375,1.375,0,1,0,0,2.75,8.385,8.385,0,0,1,8.25,8.618,1.059,1.059,0,0,1-.094.448,1.375,1.375,0,0,0,2.514,1.117A3.843,3.843,0,0,0,44,34.74,11.136,11.136,0,0,0,33,23.375Z"/>
  </symbol>

  <symbol id="coffee">
    <path id="icon" class="cls-1" d="M46.043,42.749A1.243,1.243,0,0,1,44.809,44H1.234a1.251,1.251,0,0,1,0-2.5H44.809A1.243,1.243,0,0,1,46.043,42.749ZM21.769,22.213a1.222,1.222,0,0,0,1.744-.061,1.263,1.263,0,0,0-.06-1.768c-2.116-2-1.663-6.07.155-8.369,2.467-3.12,3.01-8.684-.155-11.677A1.223,1.223,0,0,0,21.709.4a1.263,1.263,0,0,0,.061,1.768c1.9,1.8,1.858,5.822-.087,8.283a10.17,10.17,0,0,0-2.1,5.947A7.58,7.58,0,0,0,21.769,22.213ZM48,19.614v2.4a6.2,6.2,0,0,1-6.154,6.239H39.091A13.513,13.513,0,0,1,26.405,37.3H19.639A13.585,13.585,0,0,1,6.163,23.643V11.232A1.243,1.243,0,0,1,7.4,9.981h7.915c1.607-2.476,1.535-6.127-.249-7.815A1.263,1.263,0,0,1,15,.4,1.222,1.222,0,0,1,16.747.337c3.164,2.993,2.622,8.556.155,11.677-1.819,2.3-2.272,6.368-.155,8.37a1.263,1.263,0,0,1,.06,1.768,1.223,1.223,0,0,1-1.744.061A7.582,7.582,0,0,1,12.879,16.4a10.407,10.407,0,0,1,.881-3.914H8.63v11.16A11.1,11.1,0,0,0,19.639,34.8h6.767A11.1,11.1,0,0,0,37.413,23.643V12.483H28.135a1.251,1.251,0,0,1,0-2.5H38.647a1.243,1.243,0,0,1,1.234,1.251v2.143h1.965A6.2,6.2,0,0,1,48,19.614Zm-2.468,0a3.716,3.716,0,0,0-3.686-3.737H39.881v9.874h1.965a3.716,3.716,0,0,0,3.686-3.737v-2.4Z"/>
  </symbol>

  <symbol id="messenger">
    <path id="icon" class="cls-1" d="M28.873,23.374H15.126a1.375,1.375,0,0,0,0,2.75H28.873A1.375,1.375,0,0,0,28.873,23.374Zm2.749-8.248H12.376a1.375,1.375,0,1,0,0,2.749H31.622A1.375,1.375,0,1,0,31.622,15.126ZM22,0C9.852,0,0,8.62,0,19.25A18.423,18.423,0,0,0,8.252,34.261V44l9.636-5.847A25.25,25.25,0,0,0,22,38.5c12.149,0,22-8.617,22-19.247S34.148,0,22,0Zm0,35.744a22.231,22.231,0,0,1-4.647-.5L10.88,39.133l0.087-6.376C6.005,29.772,2.753,24.839,2.753,19.25c0-9.11,8.617-16.5,19.247-16.5s19.247,7.387,19.247,16.5S32.629,35.747,22,35.747Z"/>
  </symbol>

  <symbol id="love">
    <path id="icon" class="cls-1" d="M30.25,0c-0.424,0-.847.026-1.268,0.064-0.154.014-.306,0.036-0.459,0.057-0.258.031-.513,0.07-0.768,0.117Q27.473,0.29,27.2.352c-0.211.048-.42,0.1-0.63,0.162s-0.4.109-.591,0.172c-0.177.058-.349,0.128-0.524,0.193a14.081,14.081,0,0,0-1.343.583c-0.086.042-.176,0.081-0.26,0.127-0.228.121-.449,0.255-0.671,0.388C23.063,2.05,22.94,2.12,22.819,2.2c-0.215.138-.422,0.285-0.628,0.433-0.062.046-.128,0.086-0.192,0.133A13.736,13.736,0,0,0,0,13.75c0,12.445,8,23.7,21.406,30.113a1.36,1.36,0,0,0,1.188,0C36,37.452,44,26.195,44,13.75A13.765,13.765,0,0,0,30.25,0ZM22,41.1C9.934,35.108,2.75,24.927,2.75,13.75A10.971,10.971,0,0,1,19.94,4.683,13.672,13.672,0,0,0,16.5,13.75a1.375,1.375,0,0,0,2.75,0,10.964,10.964,0,0,1,3.724-8.227c0.211-.189.431-0.366,0.654-0.536,0.051-.036.1-0.075,0.152-0.113,0.219-.159.443-0.312,0.673-0.454,0.063-.04.126-0.079,0.191-0.117,0.221-.133.448-0.257,0.678-0.373,0.079-.04.161-0.079,0.242-0.117,0.22-.1.443-0.2,0.67-0.292,0.1-.04.2-0.076,0.3-0.113,0.214-.077.428-0.15,0.646-0.213,0.133-.037.262-0.071,0.395-0.1,0.2-.049.392-0.1,0.594-0.14,0.181-.033.365-0.058,0.548-0.084,0.156-.024.311-0.05,0.47-0.066,0.349-.033.7-0.054,1.061-0.054a11.013,11.013,0,0,1,11,11C41.25,24.927,34.066,35.108,22,41.1ZM30.25,5.5a1.375,1.375,0,0,0,0,2.75,5.505,5.505,0,0,1,5.5,5.5,1.375,1.375,0,0,0,2.75,0A8.259,8.259,0,0,0,30.25,5.5Z"/>
  </symbol>

  <symbol id="menu">
    <path id="icon" class="cls-1" d="M52.31,40.611H1.691a1.692,1.692,0,0,0,0,3.384H52.31A1.692,1.692,0,0,0,52.31,40.611ZM28.688,6.771V3.387h3.375a1.692,1.692,0,0,0,0-3.384H21.939a1.692,1.692,0,0,0,0,3.384h3.375s-0.012,3.523,0,3.384A27.1,27.1,0,0,0,0,33.843v1.692a1.69,1.69,0,0,0,1.687,1.692H52.31A1.691,1.691,0,0,0,54,35.535V33.843A27.1,27.1,0,0,0,28.688,6.771ZM3.378,33.843a23.623,23.623,0,1,1,47.245,0H3.378Z"/>
  </symbol>

  <symbol id="arrow">
    <path id="icon" class="cls-1" d="M0.951,7.815L4.786,4.348a0.462,0.462,0,0,0,0-.7L4.765,3.637,0.951,0.178a0.6,0.6,0,0,0-.777,0l0,0.007A0.469,0.469,0,0,0,0,.538V7.455a0.475,0.475,0,0,0,.173.359h0A0.594,0.594,0,0,0,.951,7.815Z"/>
  </symbol>

  <symbol id="arrow-circle">
    <path id="icon" class="cls-1" d="M7.583,10.434l4.772-4.773A0.736,0.736,0,1,1,13.4,6.7L9.141,10.957,13.4,15.211a0.736,0.736,0,1,1-1.04,1.041L7.583,11.48A0.742,0.742,0,0,1,7.583,10.434Zm3.4-10.409A10.985,10.985,0,1,1,0,11.011,10.985,10.985,0,0,1,10.987.026Zm0,20.5a9.513,9.513,0,1,0-9.513-9.512A9.525,9.525,0,0,0,10.987,20.523Z"/>
  </symbol>

</svg>
